<svg width="295" height="327" viewBox="0 0 295 327" fill="none" xmlns="http://www.w3.org/2000/svg">
<path d="M238 144.5L163 0L267.5 106.501L238 144.5Z" fill="#3E4D6A"/>
<path d="M267.5 211.001L238.5 184.5L163 327L267.5 211.001Z" fill="#3E4D6A"/>
<path d="M163 0L238 144.5L163 73L73 163L163 256.5L238 185.5L163 327L35.5 199.5L0 163L163 0Z" fill="#BBC9FA"/>
<g style="mix-blend-mode:hard-light">
<path d="M97.1 174.36C93.98 174.36 91.3 173.3 89.06 171.18C86.82 169.04 85.7 166.41 85.7 163.29C85.7 160.15 86.68 157.52 88.64 155.4C90.6 153.26 93.11 152.19 96.17 152.19C98.57 152.19 101 152.59 103.46 153.39L103.07 154.59C100.67 153.87 98.37 153.51 96.17 153.51C93.55 153.51 91.41 154.45 89.75 156.33C88.09 158.21 87.26 160.51 87.26 163.23C87.26 165.95 88.22 168.27 90.14 170.19C92.08 172.09 94.4 173.04 97.1 173.04C99.46 173.04 101.5 172.68 103.22 171.96L103.67 172.98C102.91 173.42 101.91 173.76 100.67 174C99.45 174.24 98.26 174.36 97.1 174.36ZM117.212 174.3C114.432 174.3 112.102 173.33 110.222 171.39C108.342 169.45 107.402 167.08 107.402 164.28C107.402 161.46 108.342 159.08 110.222 157.14C112.102 155.2 114.432 154.23 117.212 154.23C119.992 154.23 122.322 155.2 124.202 157.14C126.082 159.08 127.022 161.46 127.022 164.28C127.022 167.08 126.082 169.45 124.202 171.39C122.322 173.33 119.992 174.3 117.212 174.3ZM117.212 155.46C114.812 155.46 112.812 156.31 111.212 158.01C109.632 159.71 108.842 161.8 108.842 164.28C108.842 166.74 109.632 168.82 111.212 170.52C112.812 172.2 114.812 173.04 117.212 173.04C119.632 173.04 121.632 172.2 123.212 170.52C124.792 168.82 125.582 166.74 125.582 164.28C125.582 161.8 124.792 159.71 123.212 158.01C121.632 156.31 119.632 155.46 117.212 155.46ZM133.036 174V154.41H133.696L146.476 169.11C146.936 169.63 147.356 170.15 147.736 170.67C148.136 171.17 148.346 171.43 148.366 171.45C148.326 170.97 148.306 170.03 148.306 168.63V154.53H149.686V174.12H149.026L136.006 159.18L134.356 157.17C134.396 157.57 134.416 158.51 134.416 159.99V174H133.036ZM160.813 155.37C159.733 155.37 158.853 155.63 158.173 156.15C157.493 156.67 157.153 157.4 157.153 158.34C157.153 159.42 157.603 160.39 158.503 161.25C159.143 161.87 159.963 162.53 160.963 163.23C161.983 163.91 162.683 164.4 163.063 164.7C163.443 165 163.903 165.41 164.443 165.93C165.423 166.91 165.913 168.04 165.913 169.32C165.913 170.98 165.353 172.24 164.233 173.1C163.133 173.94 161.583 174.36 159.583 174.36C157.603 174.36 155.943 173.84 154.603 172.8L155.323 171.75C156.683 172.67 158.123 173.13 159.643 173.13C161.163 173.13 162.343 172.81 163.183 172.17C164.043 171.53 164.473 170.63 164.473 169.47C164.473 168.47 164.043 167.55 163.183 166.71C162.583 166.11 161.773 165.46 160.753 164.76C159.753 164.06 159.053 163.56 158.653 163.26C158.253 162.94 157.783 162.52 157.243 162C156.223 160.98 155.713 159.8 155.713 158.46C155.713 157.12 156.183 156.07 157.123 155.31C158.083 154.55 159.403 154.17 161.083 154.17C162.763 154.17 164.273 154.5 165.613 155.16L165.103 156.27C163.863 155.67 162.433 155.37 160.813 155.37ZM185.304 171.99C183.984 173.53 181.974 174.3 179.274 174.3C176.574 174.3 174.564 173.53 173.244 171.99C171.924 170.45 171.264 168.32 171.264 165.6V154.53H172.644V165.6C172.644 170.58 174.854 173.07 179.274 173.07C183.694 173.07 185.904 170.58 185.904 165.6V154.53H187.284V165.6C187.284 168.32 186.624 170.45 185.304 171.99ZM194.295 174V154.53H195.675V172.74H204.615V174H194.295ZM209.406 155.76H202.806V154.53H217.356V155.76H210.756V174H209.406V155.76ZM220.539 167.25L217.749 174H216.339L224.499 154.41H225.309L233.529 174H231.999L229.179 167.25H220.539ZM224.829 156.63C224.529 157.53 224.259 158.28 224.019 158.88L221.019 166.08H228.699L225.729 158.91C225.269 157.79 224.969 157.03 224.829 156.63ZM237.479 174V154.41H238.139L250.919 169.11C251.379 169.63 251.799 170.15 252.179 170.67C252.579 171.17 252.789 171.43 252.809 171.45C252.769 170.97 252.749 170.03 252.749 168.63V154.53H254.129V174.12H253.469L240.449 159.18L238.799 157.17C238.839 157.57 238.859 158.51 238.859 159.99V174H237.479ZM276.477 173.04C274.977 173.88 272.887 174.3 270.207 174.3C267.547 174.3 265.197 173.34 263.157 171.42C261.137 169.5 260.127 167.12 260.127 164.28C260.127 161.42 261.007 159.03 262.767 157.11C264.547 155.19 266.837 154.23 269.637 154.23C271.897 154.23 274.107 154.58 276.267 155.28L275.907 156.42C273.827 155.78 271.677 155.46 269.457 155.46C267.237 155.46 265.367 156.31 263.847 158.01C262.347 159.69 261.597 161.76 261.597 164.22C261.597 166.66 262.467 168.74 264.207 170.46C265.967 172.18 267.997 173.04 270.297 173.04C272.597 173.04 274.507 172.72 276.027 172.08L276.477 173.04ZM286.855 174H285.505V167.04L278.155 154.53H279.805L285.475 164.19C285.915 165.07 286.165 165.54 286.225 165.6C286.345 165.34 286.595 164.88 286.975 164.22L292.645 154.53H294.205L286.855 167.1V174Z" fill="#074D80"/>
</g>
</svg>
